<svg width="84" height="108" viewBox="0 0 84 108" fill="none" xmlns="http://www.w3.org/2000/svg">
<path d="M1.2031 53.3626C0.742692 53.6628 0.74269 54.3372 1.2031 54.6374L82.3529 107.551C82.9872 107.965 83.7931 107.3 83.5032 106.601C80.2435 98.7354 70.1125 72.7792 70.1124 54.0007C70.1122 35.2217 80.2435 9.26472 83.5032 1.39916C83.7931 0.699662 82.9872 0.0349661 82.3529 0.448538L1.2031 53.3626Z" fill="currentColor"/>
<path d="M1.2031 53.3626C0.742692 53.6628 0.74269 54.3372 1.2031 54.6374L82.3529 107.551C82.9872 107.965 83.7931 107.3 83.5032 106.601C80.2435 98.7354 70.1125 72.7792 70.1124 54.0007C70.1122 35.2217 80.2435 9.26472 83.5032 1.39916C83.7931 0.699662 82.9872 0.0349661 82.3529 0.448538L1.2031 53.3626Z" stroke="white"/>
</svg>
