<svg width="84" height="108" viewBox="0 0 84 108" fill="none" xmlns="http://www.w3.org/2000/svg">
<path d="M82.7979 53.3626C83.2583 53.6628 83.2583 54.3372 82.7979 54.6374L1.64807 107.551C1.01381 107.965 0.20792 107.3 0.497814 106.601C3.75747 98.7354 13.8885 72.7792 13.8886 54.0007C13.8887 35.2217 3.7575 9.26472 0.49781 1.39916C0.207924 0.699661 1.01381 0.0349653 1.64807 0.448537L82.7979 53.3626Z" fill="currentColor"/>
<path d="M82.7979 53.3626C83.2583 53.6628 83.2583 54.3372 82.7979 54.6374L1.64807 107.551C1.01381 107.965 0.20792 107.3 0.497814 106.601C3.75747 98.7354 13.8885 72.7792 13.8886 54.0007C13.8887 35.2217 3.7575 9.26472 0.49781 1.39916C0.207924 0.699661 1.01381 0.0349653 1.64807 0.448537L82.7979 53.3626Z" stroke="white"/>
</svg>
